<svg xmlns="http://www.w3.org/2000/svg" x="0px" y="0px"
width="64" height="64"
viewBox="0 0 172 172"
style=" fill:#000000;"><g fill="none" fill-rule="nonzero" stroke="none" stroke-width="1" stroke-linecap="butt" stroke-linejoin="miter" stroke-miterlimit="10" stroke-dasharray="" stroke-dashoffset="0" font-family="none" font-weight="none" font-size="none" text-anchor="none" style="mix-blend-mode: normal"><path d="M0,172v-172h172v172z" fill="none"></path><g><path d="M2.65391,86c0,-46.02344 37.32266,-83.34609 83.34609,-83.34609c46.02344,0 83.34609,37.32266 83.34609,83.34609c0,46.02344 -37.32266,83.34609 -83.34609,83.34609c-46.02344,0 -83.34609,-37.32266 -83.34609,-83.34609z" fill="#003545"></path><path d="M131.65391,86.70547c-12.63125,-12.63125 -25.2625,-25.2625 -37.89375,-37.89375c-3.82969,-3.82969 -10.17891,-3.69531 -13.94141,0.06719c-12.63125,12.63125 -25.2625,25.2625 -37.89375,37.89375c-9.00312,9.00313 5.00547,22.91094 14.04219,13.87422c10.27969,-10.27969 20.55937,-20.55938 30.87266,-30.87266c10.31328,10.31328 20.62656,20.62656 30.93984,30.93984c8.96953,9.03672 22.87734,-4.97187 13.87422,-14.00859z" fill="#ffffff"></path></g></g></svg>